<?xml version="1.0" encoding="utf-8"?>
<svg width="234" height="197" viewBox="0 0 234 197" fill="none" xmlns="http://www.w3.org/2000/svg">
  <g id="SingleElement">
    <path id="Rectangle" d="M204.5 0C220.795 0 234 13.2054 234 29.5L234 29.5C234 45.7946 220.795 59 204.5 59L29.5 59C13.2054 59 0 45.7946 0 29.5L0 29.5C0 13.2054 13.2054 0 29.5 0L204.5 0Z" fill="#000000" transform="translate(0 138)" />
    <path id="Rectangle" d="M204.5 0C220.795 0 234 13.2054 234 29.5L234 29.5C234 45.7946 220.795 59 204.5 59L29.5 59C13.2054 59 0 45.7946 0 29.5L0 29.5C0 13.2054 13.2054 0 29.5 0L204.5 0Z" fill="#000000" />
    <path id="Rectangle" d="M204.5 0C220.795 0 234 13.2054 234 29.5L234 29.5C234 45.7946 220.795 59 204.5 59L29.5 59C13.2054 59 0 45.7946 0 29.5L0 29.5C0 13.2054 13.2054 0 29.5 0L204.5 0Z" fill="#000000" transform="translate(0 69)" />
  </g>
</svg>