<?xml version="1.0" encoding="utf-8"?>
<svg width="200" height="200" viewBox="0 0 200 200" fill="none" xmlns="http://www.w3.org/2000/svg">
  <g id="SingleElement">
    <path id="Oval" d="M186.706 100C186.706 100 200 100 200 100C200 155.228 155.228 200 100 200C44.7715 200 0 155.228 0 100C0 44.7715 44.7715 0 100 0C155.228 0 200 44.7715 200 100C200 100 186.706 100 186.706 100C186.706 52.1138 147.886 13.2943 100 13.2943C52.1138 13.2943 13.2943 52.1138 13.2943 100C13.2943 147.886 52.1138 186.706 100 186.706C147.886 186.706 186.706 147.886 186.706 100Z" fill="#000000" fill-rule="evenodd" />
    <path id="Rectangle" d="M6.5 0C10.0903 0 13 2.90966 13 6.5L13 84.5C13 88.0903 10.0903 91 6.5 91L6.5 91C2.90967 91 0 88.0903 0 84.5L0 6.5C0 2.90966 2.90967 0 6.5 0Z" fill="#000000" transform="translate(91 24)" />
    <path id="Rectangle" d="M80 0C83.3141 0 86 2.68584 86 6L86 6C86 9.31416 83.3141 12 80 12L6 12C2.68585 12 0 9.31416 0 6L0 6C0 2.68584 2.68585 0 6 0L80 0Z" fill="#000000" transform="translate(91 103)" />
  </g>
</svg>